<svg xmlns="http://www.w3.org/2000/svg" width="34" height="34" viewBox="0 0 34 34" fill="none">
  <g filter="url(#filter0_d_28472_1307)">
    <rect x="0.568909" width="32" height="32" rx="4" fill="url(#paint0_linear_28472_1307)"/>
    <path d="M21.8818 10.6385L23.8437 12.6971V19.1121H19.8232V23.1326H16.6152C12.623 23.1325 9.38666 19.8963 9.38666 15.9041C9.38676 11.9119 12.623 8.67567 16.6152 8.67557H19.8232L21.8818 10.6385ZM15.0478 12.6941H13.4052V14.3377H13.121V17.4666H13.4052V19.1092H15.0478V19.3933H18.1767V19.1092H19.8203V17.4666H20.1044V14.3377H19.8203V12.6941H18.1767V12.4099H15.0478V12.6941Z" fill="white"/>
  </g>
  <defs>
    <filter id="filter0_d_28472_1307" x="1.97887e-05" y="0" width="33.1378" height="33.1378" filterUnits="userSpaceOnUse" color-interpolation-filters="sRGB">
      <feFlood flood-opacity="0" result="BackgroundImageFix"/>
      <feColorMatrix in="SourceAlpha" type="matrix" values="0 0 0 0 0 0 0 0 0 0 0 0 0 0 0 0 0 0 127 0" result="hardAlpha"/>
      <feOffset dy="0.568889"/>
      <feGaussianBlur stdDeviation="0.284444"/>
      <feComposite in2="hardAlpha" operator="out"/>
      <feColorMatrix type="matrix" values="0 0 0 0 0 0 0 0 0 0 0 0 0 0 0 0 0 0 0.25 0"/>
      <feBlend mode="normal" in2="BackgroundImageFix" result="effect1_dropShadow_28472_1307"/>
      <feBlend mode="normal" in="SourceGraphic" in2="effect1_dropShadow_28472_1307" result="shape"/>
    </filter>
    <linearGradient id="paint0_linear_28472_1307" x1="0.568909" y1="0" x2="32.5689" y2="32" gradientUnits="userSpaceOnUse">
      <stop stop-color="#A865F0"/>
      <stop offset="0.495192" stop-color="#2D1DB4"/>
      <stop offset="1" stop-color="#0C073C"/>
    </linearGradient>
  </defs>
</svg>
