<svg xmlns="http://www.w3.org/2000/svg" width="800" height="800" fill="none">
  <g clip-path="url(#a)">
    <rect width="800" height="800" fill="url(#b)" rx="400" />
    <path fill="#F3F2F3"
      d="M309.177 243.363c0 9.205 7.461 16.666 16.666 16.666s16.667-7.461 16.667-16.666h-33.333Zm-47.082-63.702v-16.667 16.667Zm-63.749 63.702H181.68v.106l16.666-.106Zm7.032 28.518 4.793 15.963a16.668 16.668 0 0 0 10.013-23.617l-14.806 7.654Zm18.514 141.033c9.204-.026 16.646-7.508 16.62-16.713-.025-9.205-7.508-16.646-16.712-16.621l.046 16.667.046 16.667Zm-52.695-32.644c7.096-5.863 8.096-16.368 2.233-23.464-5.863-7.096-16.368-8.096-23.464-2.233l10.616 12.848 10.615 12.849Zm125.72 68.771 16.335 3.306.332-1.636v-1.67h-16.667Zm16.667-4.162c0-9.205-7.462-16.667-16.667-16.667-9.205 0-16.667 7.462-16.667 16.667h33.334ZM211.217 632.042c8.148 4.281 18.224 1.147 22.506-7.001s1.148-18.225-7.001-22.507l-7.752 14.754-7.753 14.754Zm-32.259-80.977-16.667-.106v.101l16.667.005Zm23.063-25.835c4.226-8.177 1.024-18.232-7.153-22.459-8.177-4.226-18.232-1.024-22.459 7.153l14.806 7.653 14.806 7.653Zm160.882-224.742c0-9.205-7.462-16.666-16.666-16.666-9.205 0-16.667 7.461-16.667 16.666h33.333Zm-76.873 43.496c-9.205 0-16.667 7.462-16.667 16.667 0 9.205 7.462 16.667 16.667 16.667v-33.334Zm60.207-60.042c-9.205 0-16.667 7.462-16.667 16.667 0 9.204 7.462 16.666 16.667 16.666v-33.333Zm138.475 16.667v16.666h6.898l4.88-4.874-11.778-11.792Zm36.114-12.514c6.513-6.505 6.519-17.057.014-23.57-6.504-6.513-17.057-6.519-23.57-.015l11.778 11.793 11.778 11.792Zm-96.321 43.977c-9.204 0-16.666 7.462-16.666 16.667 0 9.205 7.462 16.666 16.666 16.666v-33.333Zm72.249 16.667v16.666h6.897l4.881-4.874-11.778-11.792Zm24.335-24.306v-16.667h-6.897l-4.881 4.875 11.778 11.792Zm65.975 16.667c9.205 0 16.667-7.462 16.667-16.667 0-9.205-7.462-16.667-16.667-16.667V341.1ZM417.485 476.222c-9.204 0-16.666 7.462-16.666 16.667 0 9.205 7.462 16.666 16.666 16.666v-33.333Zm67.227 16.667 11.778-11.793-4.88-4.874h-6.898v16.667Zm12.558 36.098c6.513 6.505 17.066 6.498 23.57-.015 6.505-6.512 6.499-17.065-.014-23.57l-11.778 11.793-11.778 11.792Zm-79.785-100.895c-9.204 0-16.666 7.462-16.666 16.667 0 9.204 7.462 16.666 16.666 16.666v-33.333Zm79.269 16.667 11.778-11.793-4.881-4.874h-6.897v16.667Zm24.335 24.305-11.778 11.793 4.881 4.874h6.897v-16.667Zm65.975 16.667c9.205 0 16.667-7.462 16.667-16.667 0-9.204-7.462-16.666-16.667-16.666v33.333Zm0 96.263c9.205 0 16.667-7.462 16.667-16.667 0-9.205-7.462-16.667-16.667-16.667v33.334Zm-90.058-16.667-13.314 10.026 5.001 6.641h8.313v-16.667Zm-18.31-24.313 13.313-10.027-5.001-6.64h-8.313l.001 16.667Zm-59.71.001v-16.667l-16.666.001v16.666h16.666Zm-103.747 72.822c0-9.205-7.462-16.666-16.666-16.666-9.205 0-16.667 7.461-16.667 16.666h33.333Zm-8.815-459.909c-2.089 8.964 3.485 17.925 12.45 20.013 8.965 2.088 17.925-3.486 20.014-12.451l-16.232-3.781-16.232-3.781Zm112.563 14.831h16.666v-.002l-16.666.002Zm0 83.719H402.32v16.667h16.666l.001-16.667Zm53.688.002v16.667h6.9l4.881-4.877-11.781-11.79Zm24.332-24.313v-16.666h-6.9l-4.881 4.877 11.781 11.789Zm90.057 16.667c9.205 0 16.667-7.462 16.667-16.667 0-9.204-7.462-16.666-16.667-16.666v33.333ZM550.94 413.415c9.205 0 16.667-7.462 16.667-16.666 0-9.205-7.462-16.667-16.667-16.667v33.333Zm-131.953-33.333c-9.205 0-16.667 7.462-16.667 16.667 0 9.204 7.462 16.666 16.667 16.666v-33.333Zm-93.144-136.719h16.667a80.335 80.335 0 0 0-6.123-30.76l-15.396 6.382-15.397 6.382a47 47 0 0 1 3.583 17.996h16.666Zm-4.852-24.378 15.396-6.382a80.375 80.375 0 0 0-17.435-26.074l-11.78 11.79-11.781 11.789a47.04 47.04 0 0 1 10.203 15.259l15.397-6.382Zm-13.819-20.666 11.78-11.79a80.41 80.41 0 0 0-26.088-17.419l-6.374 15.4-6.374 15.4a47.084 47.084 0 0 1 15.275 10.198l11.781-11.789ZM286.49 184.51l6.374-15.4a80.451 80.451 0 0 0-30.769-6.116v33.334a47.117 47.117 0 0 1 18.021 3.582l6.374-15.4Zm-24.395-4.849v-16.667a80.456 80.456 0 0 0-30.77 6.116l6.374 15.4 6.374 15.4a47.118 47.118 0 0 1 18.022-3.582v-16.667Zm-24.396 4.849-6.374-15.4a80.432 80.432 0 0 0-26.088 17.419l11.781 11.79 11.781 11.789a47.069 47.069 0 0 1 15.274-10.198l-6.374-15.4Zm-20.681 13.809-11.781-11.79a80.391 80.391 0 0 0-17.435 26.074l15.397 6.382 15.396 6.382a47.028 47.028 0 0 1 10.204-15.259l-11.781-11.789Zm-13.819 20.666-15.397-6.382a80.334 80.334 0 0 0-6.122 30.76h33.333a47 47 0 0 1 3.582-17.996l-15.396-6.382Zm-4.853 24.378-16.666.106a79.633 79.633 0 0 0 8.893 36.065l14.805-7.653 14.806-7.654a46.3 46.3 0 0 1-5.171-20.971l-16.667.107Zm7.032 28.518-4.792-15.963a80.235 80.235 0 0 0-44.647 33.806l14.066 8.94 14.066 8.94a46.899 46.899 0 0 1 26.1-19.76l-4.793-15.963Zm-35.373 26.783-14.066-8.94a80.16 80.16 0 0 0-11.639 54.769l16.486-2.448 16.486-2.448a46.826 46.826 0 0 1 6.799-31.993l-14.066-8.94Zm-9.219 43.381-16.486 2.448a80.185 80.185 0 0 0 27.05 49.028l10.864-12.639 10.864-12.64a46.847 46.847 0 0 1-15.806-28.645l-16.486 2.448Zm21.428 38.837-10.864 12.639a80.265 80.265 0 0 0 52.542 19.393l-.046-16.667-.046-16.667a46.93 46.93 0 0 1-30.722-11.338l-10.864 12.64Zm-21.632-13.461-10.616-12.848a100.896 100.896 0 0 0-28.575 38.267l15.335 6.528 15.335 6.528a67.579 67.579 0 0 1 19.136-25.626l-10.615-12.849Zm-23.856 31.947-15.335-6.528a100.85 100.85 0 0 0-7.77 47.116l16.62-1.259 16.619-1.258a67.51 67.51 0 0 1 5.201-31.543l-15.335-6.528Zm-6.485 39.329-16.62 1.259a100.866 100.866 0 0 0 14.779 45.41l14.177-8.763 14.177-8.762a67.521 67.521 0 0 1-9.894-30.402l-16.619 1.258Zm12.336 37.906-14.177 8.763a100.926 100.926 0 0 0 34.012 33.531l8.561-14.3 8.561-14.299a67.61 67.61 0 0 1-22.78-22.457l-14.177 8.762Zm28.396 27.994-8.561 14.3a101.007 101.007 0 0 0 45.626 14.149l1.033-16.635 1.032-16.635a67.673 67.673 0 0 1-30.569-9.478l-8.561 14.299Zm38.098 11.814-1.033 16.635c16.122 1 32.249-1.88 47.026-8.399l-6.726-15.249-6.727-15.249a67.665 67.665 0 0 1-31.508 5.627l-1.032 16.635Zm39.267-7.013 6.726 15.249a100.956 100.956 0 0 0 37.902-29.067l-12.984-10.45-12.984-10.45a67.613 67.613 0 0 1-25.387 19.469l6.727 15.249Zm31.644-24.268 12.984 10.45a100.868 100.868 0 0 0 20.286-43.233l-16.335-3.306-16.335-3.307a67.544 67.544 0 0 1-13.584 28.946l12.984 10.45Zm16.935-36.089h16.667v-4.162H280.25v4.162h16.667ZM218.97 617.288l7.752-14.754a58.164 58.164 0 0 1-22.726-21.406l-14.265 8.619-14.265 8.619a91.502 91.502 0 0 0 35.751 33.676l7.753-14.754Zm-29.239-27.541 14.265-8.619a58.092 58.092 0 0 1-8.372-30.057l-16.666-.006-16.667-.005a91.42 91.42 0 0 0 13.175 47.306l14.265-8.619Zm-10.773-38.682 16.666.107a57.289 57.289 0 0 1 6.397-25.942l-14.806-7.653-14.806-7.653a90.617 90.617 0 0 0-10.118 41.035l16.667.106Zm167.279-250.577H329.57a43.473 43.473 0 0 1-12.748 30.752l11.78 11.79 11.781 11.789a76.805 76.805 0 0 0 22.52-54.331h-16.666Zm-17.635 42.542-11.78-11.79a43.562 43.562 0 0 1-30.792 12.744v33.334a76.895 76.895 0 0 0 54.353-22.499l-11.781-11.789Zm17.635-42.421v16.666h138.475v-33.333H346.237v16.667Zm138.475 0 11.778 11.792 24.336-24.306-11.778-11.792-11.778-11.793-24.336 24.306 11.778 11.793Zm-60.207 48.13v16.666h72.249v-33.333h-72.249v16.667Zm72.249 0 11.778 11.792 24.335-24.306-11.778-11.792-11.778-11.792-24.335 24.305 11.778 11.793Zm24.335-24.306V341.1h65.975v-33.334h-65.975v16.667ZM417.485 492.889v16.666h67.227v-33.333h-67.227v16.667Zm67.227 0-11.777 11.792 24.335 24.306 11.778-11.792 11.778-11.793-24.336-24.306-11.778 11.793Zm-67.227-48.13v16.666h79.269v-33.333h-79.269v16.667Zm79.269 0-11.778 11.792 24.335 24.306 11.778-11.793 11.778-11.792-24.335-24.306-11.778 11.793Zm24.335 24.305v16.667h65.975v-33.333h-65.975v16.666Zm65.975 96.263V548.66h-90.058v33.334h90.058v-16.667Zm-90.058 0 13.313-10.026-18.31-24.314-13.313 10.027-13.314 10.026 18.31 24.313 13.314-10.026Zm-18.31-24.313-.001-16.667-59.709.001v16.667l.001 16.667 59.709-.002v-16.666Zm-59.71.001H402.32v72.822h33.333v-72.822h-16.667Zm0 72.822H402.32a43.47 43.47 0 0 1-12.749 30.752l11.781 11.79 11.781 11.789a76.805 76.805 0 0 0 22.52-54.331h-16.667Zm-17.634 42.542-11.781-11.79a43.558 43.558 0 0 1-30.791 12.744v33.334a76.895 76.895 0 0 0 54.353-22.499l-11.781-11.789ZM358.78 674v-16.667a43.559 43.559 0 0 1-30.792-12.744l-11.781 11.79-11.781 11.789a76.897 76.897 0 0 0 54.354 22.499V674Zm-42.573-17.621 11.781-11.79a43.474 43.474 0 0 1-12.749-30.752h-33.333a76.805 76.805 0 0 0 22.52 54.331l11.781-11.789Zm6.449-498.67 16.232 3.781a32.098 32.098 0 0 1 12.782-18.959l-9.596-13.627-9.597-13.627a65.432 65.432 0 0 0-26.053 38.651l16.232 3.781Zm19.418-28.805 9.596 13.627a32.164 32.164 0 0 1 22.182-5.655l1.899-16.558 1.899-16.558a65.497 65.497 0 0 0-45.173 11.517l9.597 13.627Zm33.677-8.586-1.899 16.558a32.146 32.146 0 0 1 20.319 10.529l12.435-11.099 12.434-11.098a65.484 65.484 0 0 0-41.39-21.448l-1.899 16.558Zm30.855 15.988-12.435 11.099a32.073 32.073 0 0 1 8.149 21.356l16.667-.002 16.666-.002a65.412 65.412 0 0 0-16.613-43.549l-12.434 11.098Zm12.381 32.453H402.32v83.719h33.333v-83.719h-16.666Zm0 83.719-.001 16.667 53.689.002V252.48l.001-16.667-53.689-.001v16.666Zm53.688.002 11.781 11.79 24.331-24.313-11.78-11.79-11.781-11.789-24.331 24.312 11.78 11.79Zm24.332-24.313v16.667h90.057v-33.333h-90.057v16.666Zm53.933 168.582v-16.667H418.987v33.333H550.94v-16.666Zm-288.993-48.131H245.28a4.63 4.63 0 0 1 4.626-4.634v33.334c15.843 0 28.708-12.838 28.708-28.7h-16.667Zm-12.041 12.033v-16.667a4.63 4.63 0 0 1 4.625 4.634h-33.333c0 15.862 12.864 28.7 28.708 28.7v-16.667Zm-12.042-12.033h16.667a4.63 4.63 0 0 1-4.625 4.635v-33.334c-15.844 0-28.708 12.838-28.708 28.699h16.666Zm12.042-12.032v16.667a4.631 4.631 0 0 1-4.626-4.635h33.334c0-15.861-12.865-28.699-28.708-28.699v16.667Zm21.574 294.797h-16.667a4.63 4.63 0 0 1 4.625-4.634v33.334c15.844 0 28.708-12.838 28.708-28.7H271.48Zm-12.042 12.033v-16.667a4.63 4.63 0 0 1 4.626 4.634H230.73c0 15.862 12.865 28.7 28.708 28.7v-16.667Zm-12.041-12.033h16.667a4.631 4.631 0 0 1-4.626 4.635v-33.334c-15.843 0-28.708 12.838-28.708 28.699h16.667Zm12.041-12.032v16.667a4.63 4.63 0 0 1-4.625-4.635h33.333c0-15.861-12.864-28.699-28.708-28.699v16.667ZM641 228.293h-16.667c0 4.074-3.308 7.398-7.416 7.398v33.334c22.494 0 40.75-18.225 40.75-40.732H641Zm-24.083 24.065v-16.667c-4.107 0-7.416-3.324-7.416-7.398h-33.333c0 22.507 18.255 40.732 40.749 40.732v-16.667Zm-24.083-24.065h16.667c0-4.075 3.309-7.399 7.416-7.399v-33.333c-22.494 0-40.749 18.225-40.749 40.732h16.666Zm24.083-24.065v16.666c4.108 0 7.416 3.324 7.416 7.399h33.334c0-22.507-18.256-40.732-40.75-40.732v16.667ZM641 324.553h-16.667c0 4.075-3.308 7.399-7.416 7.399v33.333c22.494 0 40.75-18.225 40.75-40.732H641Zm-24.083 24.065v-16.666c-4.107 0-7.416-3.324-7.416-7.399h-33.333c0 22.507 18.255 40.732 40.749 40.732v-16.667Zm-24.083-24.065h16.667c0-4.074 3.309-7.398 7.416-7.398v-33.333c-22.494 0-40.749 18.224-40.749 40.731h16.666Zm24.083-24.065v16.667c4.108 0 7.416 3.324 7.416 7.398h33.334c0-22.507-18.256-40.731-40.75-40.731v16.666ZM641 468.944h-16.667c0 4.075-3.308 7.398-7.416 7.398v33.334c22.494 0 40.75-18.225 40.75-40.732H641Zm-24.083 24.065v-16.667c-4.107 0-7.416-3.323-7.416-7.398h-33.333c0 22.507 18.255 40.732 40.749 40.732v-16.667Zm-24.083-24.065h16.667c0-4.075 3.309-7.398 7.416-7.398v-33.334c-22.494 0-40.749 18.225-40.749 40.732h16.666Zm24.083-24.065v16.667c4.108 0 7.416 3.323 7.416 7.398h33.334c0-22.507-18.256-40.732-40.75-40.732v16.667ZM641 565.204h-16.667c0 4.075-3.308 7.399-7.416 7.399v33.333c22.494 0 40.75-18.224 40.75-40.732H641Zm-24.083 24.066v-16.667c-4.107 0-7.416-3.324-7.416-7.399h-33.333c0 22.508 18.255 40.732 40.749 40.732V589.27Zm-24.083-24.066h16.667c0-4.074 3.309-7.398 7.416-7.398v-33.333c-22.494 0-40.749 18.224-40.749 40.731h16.666Zm24.083-24.065v16.667c4.108 0 7.416 3.324 7.416 7.398h33.334c0-22.507-18.256-40.731-40.75-40.731v16.666Z" />
  </g>
  <defs>
    <linearGradient id="b" x1="0" x2="730.103" y1="0" y2="859.224" gradientUnits="userSpaceOnUse">
      <stop stop-color="#b02dbe" />
      <stop offset="1" stop-color="#6e27cb" />
    </linearGradient>
    <clipPath id="a">
      <path fill="#fff" d="M0 0h800v800H0z" />
    </clipPath>
  </defs>
</svg>