<svg width="36" height="36" viewBox="0 0 36 36" fill="none" xmlns="http://www.w3.org/2000/svg">
<rect width="36" height="36" fill="white"/>
<g clip-path="url(#clip0_3209_20288)">
<path d="M28.0307 6.30764C28.05 6.62362 27.9722 6.93804 27.8071 7.21089C27.642 7.48375 27.3971 7.70268 27.1036 7.83981C26.8101 7.97695 26.4813 8.0261 26.159 7.98099C25.8366 7.93588 25.5354 7.79857 25.2936 7.58652C25.0519 7.37447 24.8805 7.09729 24.8013 6.79025C24.7221 6.48322 24.7387 6.16022 24.8489 5.86238C24.9592 5.56454 25.1582 5.30533 25.4205 5.11775C25.6828 4.93017 25.9966 4.82271 26.3219 4.80904C26.5353 4.79759 26.7489 4.82725 26.9504 4.89633C27.152 4.96541 27.3375 5.07253 27.4963 5.21154C27.6551 5.35054 27.784 5.51869 27.8758 5.70632C27.9675 5.89394 28.0201 6.09734 28.0307 6.30481V6.30764Z" fill="#767677"/>
<path d="M18.4599 24.7303C14.1036 24.7303 10.2755 23.2109 8.2959 20.9668C9.064 22.9856 10.4499 24.7272 12.2671 25.9572C14.0843 27.1873 16.2455 27.8467 18.4599 27.8467C20.6743 27.8467 22.8356 27.1873 24.6528 25.9572C26.47 24.7272 27.8559 22.9856 28.624 20.9668C26.6492 23.21 22.8356 24.7303 18.4599 24.7303Z" fill="#F37726"/>
<path d="M18.4599 10.1388C22.8162 10.1388 26.6444 11.6582 28.624 13.9023C27.8559 11.8835 26.47 10.1419 24.6528 8.91188C22.8356 7.68185 20.6743 7.02246 18.4599 7.02246C16.2455 7.02246 14.0843 7.68185 12.2671 8.91188C10.4499 10.1419 9.064 11.8835 8.2959 13.9023C10.2755 11.6535 14.0852 10.1388 18.4599 10.1388Z" fill="#F37726"/>
<path d="M12.4656 29.0994C12.4901 29.5929 12.3249 30.0775 12.0022 30.4592C11.6795 30.8408 11.2223 31.0921 10.7195 31.1643C10.2167 31.2364 9.70429 31.1243 9.28188 30.8496C8.85946 30.5749 8.55724 30.1573 8.43397 29.6781C8.31071 29.1988 8.37522 28.6921 8.61495 28.2565C8.85469 27.8209 9.25252 27.4876 9.73108 27.3213C10.2096 27.1549 10.7347 27.1676 11.2042 27.3567C11.6738 27.5458 12.0541 27.8979 12.2714 28.3445C12.3861 28.5814 12.4521 28.8379 12.4656 29.0994Z" fill="#9E9E9E"/>
<path d="M8.79162 9.62702C8.55702 9.63315 8.32578 9.57173 8.12698 9.45048C7.92818 9.32923 7.7707 9.15356 7.67432 8.94556C7.57795 8.73755 7.54699 8.5065 7.58533 8.28144C7.62367 8.05637 7.72961 7.84735 7.88982 7.68065C8.05003 7.51395 8.25737 7.397 8.48577 7.34452C8.71416 7.29203 8.95343 7.30634 9.17348 7.38566C9.39353 7.46498 9.58454 7.60576 9.72251 7.79031C9.86048 7.97485 9.93924 8.19492 9.9489 8.42285C9.9581 8.73128 9.8417 9.03077 9.625 9.25625C9.4083 9.48172 9.10882 9.61497 8.79162 9.62702Z" fill="#616262"/>
</g>
<defs>
<clipPath id="clip0_3209_20288">
<rect width="22" height="28" fill="white" transform="translate(7 4)"/>
</clipPath>
</defs>
</svg>
