<svg width="36" height="36" viewBox="0 0 36 36" fill="none" xmlns="http://www.w3.org/2000/svg">
<rect width="36" height="36" fill="white"/>
<path d="M5.32424 28.6348C5.32424 27.6235 6.14729 26.8015 7.15966 26.8015C8.17136 26.8015 8.99502 27.6235 8.99502 28.6348C8.99502 29.6454 8.17136 30.4674 7.15966 30.4674C6.14729 30.4674 5.32424 29.6454 5.32424 28.6348ZM21.5692 27.8738H10.4243C10.3395 27.5115 10.1948 27.1746 10.0036 26.8683L16.0357 20.8335C16.5495 21.1532 17.1507 21.3462 17.7997 21.3462C19.3896 21.3462 20.7175 20.235 21.065 18.7512H21.5692C24.0874 18.7512 26.1351 20.7972 26.1351 23.3126C26.1351 25.8272 24.0874 27.8738 21.5692 27.8738ZM28.4403 9.17916C27.428 9.17916 26.605 8.35644 26.605 7.34583C26.605 6.33462 27.428 5.51256 28.4403 5.51256C29.4521 5.51256 30.2757 6.33462 30.2757 7.34583C30.2757 8.35644 29.4521 9.17916 28.4403 9.17916ZM14.1161 8.10681H25.1757C25.2605 8.46852 25.4051 8.806 25.5964 9.11289L19.5643 15.1477C19.0504 14.828 18.4487 14.6351 17.7997 14.6351C16.211 14.6351 14.8831 15.7457 14.5356 17.2287H14.1161C11.598 17.2287 9.54966 15.1828 9.54966 12.6681C9.54966 10.1528 11.598 8.10681 14.1161 8.10681ZM19.6351 17.991C19.6351 19.0015 18.812 19.8236 17.7997 19.8236C16.7879 19.8236 15.9649 19.0015 15.9649 17.991C15.9649 16.9798 16.7879 16.1576 17.7997 16.1576C18.812 16.1576 19.6351 16.9798 19.6351 17.991ZM3.79999 28.6348C3.79999 30.4846 5.30704 31.99 7.15966 31.99C8.74893 31.99 10.0769 30.8788 10.4243 29.3957H21.5692C24.9277 29.3957 27.66 26.6671 27.66 23.3126C27.66 19.958 24.9277 17.2287 21.5692 17.2287H21.0643C20.9796 16.867 20.8355 16.5295 20.6436 16.2233L26.6751 10.1885C27.1889 10.5081 27.7913 10.7011 28.4403 10.7011C30.2929 10.7011 31.8 9.19634 31.8 7.34583C31.8 5.49538 30.2929 3.98999 28.4403 3.98999C26.851 3.98999 25.5231 5.10117 25.1757 6.58425H14.1161C10.7578 6.58425 8.02536 9.31349 8.02536 12.6681C8.02536 16.022 10.7578 18.7512 14.1161 18.7512H14.5356C14.6204 19.1136 14.7645 19.4511 14.9564 19.7574L8.92491 25.7922C8.41041 25.4719 7.80865 25.2783 7.15966 25.2783C5.30704 25.2783 3.79999 26.7843 3.79999 28.6348Z" fill="#04A1E9"/>
</svg>
