<svg width="36" height="36" viewBox="0 0 36 36" fill="none" xmlns="http://www.w3.org/2000/svg">
<rect width="36" height="36" fill="white"/>
<g clip-path="url(#clip0_3226_21048)">
<path d="M26.1094 6.5377C20.4074 2.55009 12.6442 3.33413 7.85566 8.38121C3.06719 13.4283 2.69595 21.218 6.98278 26.6971L11.2628 23.5573C9.13827 20.9232 8.70677 17.3072 10.1518 14.2477C11.5969 11.188 14.6643 9.22285 18.0492 9.18804L17.948 12.5305L26.1094 6.5377Z" fill="#43C9ED"/>
<path d="M29.2743 9.65697C29.1324 9.46114 28.9837 9.2687 28.8317 9.08301L24.7104 12.1216C27.0371 14.6949 27.6406 18.3913 26.2534 21.5705C24.8662 24.7495 21.7451 26.8223 18.2752 26.869L18.3767 23.53L10.124 29.6071C15.7797 33.4135 23.3542 32.6068 28.0804 27.695C32.8066 22.7832 33.3175 15.187 29.2911 9.68735L29.2743 9.65697Z" fill="#0194E2"/>
</g>
<defs>
<clipPath id="clip0_3226_21048">
<rect width="28" height="28" fill="white" transform="translate(4 4)"/>
</clipPath>
</defs>
</svg>
